<?xml version="1.0" encoding="UTF-8" standalone="no"?>
<!DOCTYPE svg PUBLIC "-//W3C//DTD SVG 1.1//EN"
 "http://www.w3.org/Graphics/SVG/1.1/DTD/svg11.dtd">
<!-- Generated by graphviz version 3.0.0 (20220226.1711)
 -->
<!-- Title: Tree Pages: 1 -->
<svg width="377pt" height="260pt"
 viewBox="0.00 0.00 377.00 260.00" xmlns="http://www.w3.org/2000/svg" xmlns:xlink="http://www.w3.org/1999/xlink">
<g id="graph0" class="graph" transform="scale(1 1) rotate(0) translate(4 256)">
<title>Tree</title>
<polygon fill="white" stroke="transparent" points="-4,4 -4,-256 373,-256 373,4 -4,4"/>
<!-- 6 -->
<g id="node1" class="node">
<title>6</title>
<ellipse fill="none" stroke="black" cx="162" cy="-234" rx="27" ry="18"/>
<text text-anchor="middle" x="162" y="-230.3" font-family="Times New Roman,serif" font-size="14.00">6</text>
</g>
<!-- 4 -->
<g id="node2" class="node">
<title>4</title>
<ellipse fill="none" stroke="black" cx="72" cy="-162" rx="27" ry="18"/>
<text text-anchor="middle" x="72" y="-158.3" font-family="Times New Roman,serif" font-size="14.00">4</text>
</g>
<!-- 6&#45;&gt;4 -->
<g id="edge1" class="edge">
<title>6&#45;&gt;4</title>
<path fill="none" stroke="black" d="M144.65,-220.12C131.2,-209.36 112.38,-194.3 97.26,-182.21"/>
<polygon fill="black" stroke="black" points="99.29,-179.35 89.3,-175.84 94.92,-184.82 99.29,-179.35"/>
</g>
<!-- 10 -->
<g id="node3" class="node">
<title>10</title>
<ellipse fill="none" stroke="black" cx="297" cy="-162" rx="27" ry="18"/>
<text text-anchor="middle" x="297" y="-158.3" font-family="Times New Roman,serif" font-size="14.00">10</text>
</g>
<!-- 6&#45;&gt;10 -->
<g id="edge2" class="edge">
<title>6&#45;&gt;10</title>
<path fill="none" stroke="black" d="M183.09,-222.75C205.55,-210.77 241.29,-191.71 266.74,-178.14"/>
<polygon fill="black" stroke="black" points="268.43,-181.2 275.61,-173.41 265.14,-175.03 268.43,-181.2"/>
</g>
<!-- 2 -->
<g id="node4" class="node">
<title>2</title>
<ellipse fill="none" stroke="black" cx="27" cy="-90" rx="27" ry="18"/>
<text text-anchor="middle" x="27" y="-86.3" font-family="Times New Roman,serif" font-size="14.00">2</text>
</g>
<!-- 4&#45;&gt;2 -->
<g id="edge3" class="edge">
<title>4&#45;&gt;2</title>
<path fill="none" stroke="black" d="M61.56,-145.3C56.08,-136.52 49.23,-125.57 43.08,-115.73"/>
<polygon fill="black" stroke="black" points="45.96,-113.73 37.69,-107.11 40.02,-117.44 45.96,-113.73"/>
</g>
<!-- 5 -->
<g id="node5" class="node">
<title>5</title>
<ellipse fill="none" stroke="black" cx="117" cy="-90" rx="27" ry="18"/>
<text text-anchor="middle" x="117" y="-86.3" font-family="Times New Roman,serif" font-size="14.00">5</text>
</g>
<!-- 4&#45;&gt;5 -->
<g id="edge4" class="edge">
<title>4&#45;&gt;5</title>
<path fill="none" stroke="black" d="M82.44,-145.3C87.92,-136.52 94.77,-125.57 100.92,-115.73"/>
<polygon fill="black" stroke="black" points="103.98,-117.44 106.31,-107.11 98.04,-113.73 103.98,-117.44"/>
</g>
<!-- 7 -->
<g id="node6" class="node">
<title>7</title>
<ellipse fill="none" stroke="black" cx="207" cy="-90" rx="27" ry="18"/>
<text text-anchor="middle" x="207" y="-86.3" font-family="Times New Roman,serif" font-size="14.00">7</text>
</g>
<!-- 10&#45;&gt;7 -->
<g id="edge5" class="edge">
<title>10&#45;&gt;7</title>
<path fill="none" stroke="black" d="M279.65,-148.12C266.2,-137.36 247.38,-122.3 232.26,-110.21"/>
<polygon fill="black" stroke="black" points="234.29,-107.35 224.3,-103.84 229.92,-112.82 234.29,-107.35"/>
</g>
<!-- 12 -->
<g id="node7" class="node">
<title>12</title>
<ellipse fill="none" stroke="black" cx="342" cy="-90" rx="27" ry="18"/>
<text text-anchor="middle" x="342" y="-86.3" font-family="Times New Roman,serif" font-size="14.00">12</text>
</g>
<!-- 10&#45;&gt;12 -->
<g id="edge6" class="edge">
<title>10&#45;&gt;12</title>
<path fill="none" stroke="black" d="M307.44,-145.3C312.92,-136.52 319.77,-125.57 325.92,-115.73"/>
<polygon fill="black" stroke="black" points="328.98,-117.44 331.31,-107.11 323.04,-113.73 328.98,-117.44"/>
</g>
<!-- 8 -->
<g id="node8" class="node">
<title>8</title>
<ellipse fill="none" stroke="black" cx="252" cy="-18" rx="27" ry="18"/>
<text text-anchor="middle" x="252" y="-14.3" font-family="Times New Roman,serif" font-size="14.00">8</text>
</g>
<!-- 7&#45;&gt;8 -->
<g id="edge7" class="edge">
<title>7&#45;&gt;8</title>
<path fill="none" stroke="black" d="M217.44,-73.3C222.92,-64.52 229.77,-53.57 235.92,-43.73"/>
<polygon fill="black" stroke="black" points="238.98,-45.44 241.31,-35.11 233.04,-41.73 238.98,-45.44"/>
</g>
</g>
</svg>
